HIERARCHY
ROOT Hips
{
	OFFSET -3.958830 18.904000 13.208200
	CHANNELS 6 Xposition Yposition Zposition Zrotation Yrotation Xrotation 
	JOINT LHipJoint
	{
		OFFSET 0.000000 0.000000 0.000000
		CHANNELS 3 Zrotation Yrotation Xrotation
		JOINT LeftUpLeg
		{
			OFFSET 1.800000 -1.400000 0.085000
			CHANNELS 3 Zrotation Yrotation Xrotation
			JOINT LeftLeg
			{
				OFFSET 2.215000 -6.000000 0.000000
				CHANNELS 3 Zrotation Yrotation Xrotation
				JOINT LeftFoot
				{
					OFFSET 2.500000 -6.900000 0.000000
					CHANNELS 3 Zrotation Yrotation Xrotation
					JOINT LeftToeBase
					{
						OFFSET 0.200000 -0.500000 1.950000
						CHANNELS 3 Zrotation Yrotation Xrotation
						End Site
						{
							OFFSET 0.000000 0.000000 0.000000
						}
					}
				}
			}
		}
	}
	JOINT RHipJoint
	{
		OFFSET 0.000000 0.000000 0.000000
		CHANNELS 3 Zrotation Yrotation Xrotation
		JOINT RightUpLeg
		{
			OFFSET -1.800000 -1.400000 0.085000
			CHANNELS 3 Zrotation Yrotation Xrotation
			JOINT RightLeg
			{
				OFFSET -2.215000 -6.000000 0.000000
				CHANNELS 3 Zrotation Yrotation Xrotation
				JOINT RightFoot
				{
					OFFSET -2.500000 -6.900000 0.000000
					CHANNELS 3 Zrotation Yrotation Xrotation
					JOINT RightToeBase
					{
						OFFSET -0.200000 -0.500000 1.950000
						CHANNELS 3 Zrotation Yrotation Xrotation
						End Site
						{
							OFFSET 0.000000 0.000000 0.000000
						}
					}
				}
			}
		}
	}
	JOINT LowerBack
	{
		OFFSET 0.000000 0.000000 0.000000
		CHANNELS 3 Zrotation Yrotation Xrotation
		JOINT Spine
		{
			OFFSET -0.087000 1.940000 -0.288900
			CHANNELS 3 Zrotation Yrotation Xrotation
			JOINT Spine1
			{
				OFFSET 0.000000 1.950000 0.060000
				CHANNELS 3 Zrotation Yrotation Xrotation
				JOINT Neck
				{
					OFFSET 0.000000 0.000000 0.000000
					CHANNELS 3 Zrotation Yrotation Xrotation
					JOINT Neck1
					{
						OFFSET 0.000000 1.600000 0.340000
						CHANNELS 3 Zrotation Yrotation Xrotation
						JOINT Head
						{
							OFFSET 0.000000 1.667000 -0.240000
							CHANNELS 3 Zrotation Yrotation Xrotation
							End Site
							{
								OFFSET 0.000000 0.000000 0.000000
							}
						}
					}
				}
				JOINT LeftShoulder
				{
					OFFSET 0.000000 0.000000 0.000000
					CHANNELS 3 Zrotation Yrotation Xrotation
					JOINT LeftArm
					{
						OFFSET 2.700000 1.550000 -0.730000
						CHANNELS 3 Zrotation Yrotation Xrotation
						JOINT LeftForeArm
						{
							OFFSET 5.450000 0.000000 0.000000
							CHANNELS 3 Zrotation Yrotation Xrotation
							JOINT LeftHand
							{
								OFFSET 3.450000 0.000000 0.000000
								CHANNELS 3 Zrotation Yrotation Xrotation
								JOINT LeftHandIndex1
								{
									OFFSET 0.750000 0.000000 0.000000
									CHANNELS 3 Zrotation Yrotation Xrotation
									End Site
									{
										OFFSET 0.000000 0.000000 0.000000
									}
								}
							}
						}
					}
				}
				JOINT RightShoulder
				{
					OFFSET 0.000000 0.000000 0.000000
					CHANNELS 3 Zrotation Yrotation Xrotation
					JOINT RightArm
					{
						OFFSET -2.700000 1.550000 -0.730000
						CHANNELS 3 Zrotation Yrotation Xrotation
						JOINT RightForeArm
						{
							OFFSET -5.450000 0.000000 0.000000
							CHANNELS 3 Zrotation Yrotation Xrotation
							JOINT RightHand
							{
								OFFSET -3.450000 0.000000 0.000000
								CHANNELS 3 Zrotation Yrotation Xrotation
								JOINT RightHandIndex1
								{
									OFFSET -0.750000 0.000000 0.000000
									CHANNELS 3 Zrotation Yrotation Xrotation
									End Site
									{
										OFFSET 0.000000 0.000000 0.000000
									}
								}
							}
						}
					}
				}
			}
		}
	}
}
MOTION
Frames: 11
Frame Time: 0.016667
5.060870 9.856950 -7.033110 -126.130306 22.487074 -86.103102 -14.752504 11.995658 4.688555 -17.331990 -6.338081 -2.287022 -3.477708 11.817081 56.757303 1.677329 10.022779 1.120037 0.556640 0.530470 0.279340 18.683655 -12.255046 1.643138 -7.776807 -0.307715 -9.421178 -9.853325 -4.456363 47.777255 -1.193823 -6.538570 1.978715 0.145980 -0.280440 0.072150 -4.906389 2.106967 -8.466763 38.531835 7.267478 23.444315 2.881225 11.408757 16.165661 5.525346 -1.502588 -16.572565 -2.732432 -13.437266 40.393686 35.916700 -13.527750 -41.516520 -21.178789 -23.072517 14.559464 -49.213607 -6.259394 -3.905014 130.775562 -51.282088 -105.696742 -3.049436 2.935113 0.681550 -0.585140 0.533940 0.165370 10.410213 33.109969 7.313998 3.677085 17.935359 -15.338675 -87.605489 66.224914 -52.707743 2.459677 0.075415 0.141630 0.166460 -0.250320 0.043190 
5.170560 9.830450 -7.065960 -128.884132 21.939861 -87.687668 -14.760954 11.652959 4.897272 -17.454834 -7.899958 -3.124289 -7.794987 17.033270 63.976255 2.177241 12.052981 0.548750 0.615910 0.625440 0.294760 18.747435 -12.078702 1.573534 -9.542194 0.815284 -11.992047 -11.782410 -4.955399 60.058914 -1.639851 -8.395530 1.370609 0.211880 -0.261480 0.078560 -4.954361 2.106816 -8.618436 37.828962 6.399796 23.371738 1.801435 9.811231 15.964505 5.518275 -1.092717 -16.100846 -2.026896 -11.348424 43.333593 34.615840 -12.555260 -39.714110 -21.599041 -21.911809 13.942678 -48.962419 -3.783671 -5.581094 137.776501 -48.972698 -114.605873 -3.042655 3.076036 0.673410 -0.571110 0.550950 0.189640 10.840926 31.170848 7.333406 5.308050 18.429619 -14.660823 -94.557344 66.868149 -61.296858 2.203529 0.692202 0.150490 0.198400 -0.266150 0.062190 
5.300790 9.849100 -7.058680 -129.531769 22.697948 -88.289391 -14.882650 11.474416 5.069989 -16.544865 -8.414641 -3.317747 -14.873791 23.776699 65.941864 2.655444 13.702288 0.149049 0.651670 0.702170 0.308950 18.680660 -11.824814 1.587128 -9.771316 1.936408 -14.322043 -15.567019 -3.029764 67.873097 -1.950835 -9.568223 1.034611 0.255700 -0.221890 0.083880 -4.668956 1.869000 -8.771985 32.397135 6.308029 24.688682 3.183027 9.045385 16.193552 4.801193 -0.262758 -15.688722 0.227584 -9.236667 43.171982 32.679660 -10.429210 -36.905950 -20.499377 -20.829832 13.380592 -49.331633 -1.223017 -7.645003 142.743628 -44.539000 -118.728687 -3.042567 3.186103 0.625930 -0.526830 0.545710 0.212130 11.253864 29.579825 7.437872 7.303017 19.918001 -13.233386 -101.013481 67.158502 -71.143009 2.182632 1.221252 0.164260 0.220310 -0.286700 0.083880 
5.491330 9.869790 -7.003680 -131.435788 22.988455 -89.032775 -14.930584 11.132320 5.169439 -16.499046 -9.234660 -2.716729 -19.007650 27.304271 66.476784 2.851678 14.547624 -0.046187 0.656320 0.726640 0.304120 18.704197 -11.787530 1.551546 -8.719988 2.058688 -14.073703 -18.788992 -1.330838 73.546125 -2.210957 -10.550694 0.777585 0.301130 -0.159200 0.083650 -4.617233 2.262125 -8.813230 26.951356 7.176488 23.946010 4.823158 9.057736 17.328017 3.527129 1.741236 -15.145470 4.444934 -9.477983 42.402201 31.059660 -9.379230 -33.847120 -18.344016 -20.224897 12.251222 -46.042549 -2.692244 -6.605622 146.771235 -39.070995 -118.590980 -3.082308 3.222146 0.579950 -0.458870 0.503380 0.218530 11.768460 27.164673 7.923587 10.965848 21.221692 -12.260565 -104.429822 66.138403 -77.171694 2.299406 1.180572 0.139590 0.251460 -0.273140 0.087310 
5.628530 9.807400 -7.012730 -132.136331 22.266174 -88.748986 -14.809486 10.818978 5.238857 -19.263390 -9.553798 -2.357336 -18.743611 25.961672 65.319753 2.775886 14.191934 0.058218 0.625160 0.692070 0.283180 18.867483 -11.900855 1.489716 -8.920629 1.658760 -13.627927 -17.545578 -2.740337 73.617461 -2.181981 -10.573183 0.779444 0.288870 -0.129070 0.071820 -5.036214 2.895762 -8.787752 27.292430 7.324774 21.958824 3.710458 9.076554 18.147001 2.464361 1.588616 -15.220078 4.094312 -8.468310 43.649643 30.413550 -9.206880 -31.406410 -15.763602 -17.712948 11.131704 -46.829650 -2.362230 -5.515104 148.899475 -38.418439 -120.963880 -3.079675 3.278679 0.557320 -0.429910 0.470030 0.213700 11.278902 23.596795 9.354785 15.684118 21.597074 -7.889006 -113.642476 63.380028 -95.051763 2.612492 0.453876 0.121940 0.257910 -0.256040 0.086490 
5.751040 9.746600 -7.008990 -131.366032 21.008333 -87.894235 -14.699397 10.581642 5.312202 -19.822223 -9.876970 -2.110749 -21.757364 27.413891 63.763652 2.789151 14.383572 0.013899 0.594530 0.634730 0.269240 19.005526 -11.999165 1.460728 -7.977076 1.495777 -13.451748 -19.895507 -1.005894 74.238473 -2.218335 -10.778936 0.739274 0.288620 -0.095920 0.067790 -5.401122 3.366631 -8.776242 28.271502 7.277478 20.282323 1.687672 9.376122 18.479575 1.903455 0.387273 -15.110108 2.171602 -5.144594 44.937878 28.711250 -7.459610 -28.272610 -15.583254 -16.219332 10.602642 -45.447559 -0.777796 -4.856358 152.248875 -37.413490 -126.206076 -3.117750 3.312241 0.555600 -0.390250 0.423220 0.201390 12.303989 22.490455 10.088113 18.440286 22.147658 -5.333140 -119.192681 64.570920 -109.186147 2.673502 -0.288089 0.075850 0.259610 -0.224110 0.059230 
5.827800 9.679870 -7.036270 -131.275684 19.796432 -88.024427 -14.736319 10.494353 5.530344 -19.562450 -10.699366 -1.979542 -29.451947 31.462700 60.502738 2.926085 14.822086 -0.091842 0.618580 0.654720 0.282810 18.982693 -11.964148 1.381258 -7.373086 1.021315 -12.811376 -23.103104 1.378101 74.664049 -2.317435 -11.034081 0.676076 0.314720 -0.110900 0.072960 -5.315264 3.230557 -8.757424 28.333868 8.390913 20.758304 3.319624 11.047626 17.334699 1.484093 -0.314610 -14.214713 0.454426 -4.381017 44.853676 28.245140 -6.983180 -28.536430 -15.983095 -13.640728 9.290145 -46.090023 -2.574836 -1.684547 157.675981 -38.925483 -137.875156 -3.092186 3.402444 0.562230 -0.394850 0.426290 0.205000 13.301022 20.803974 9.743477 17.840275 18.665520 -6.997612 -133.045095 64.634638 -129.223804 2.465423 -1.428828 0.072600 0.254440 -0.228970 0.047460 
5.885740 9.632400 -7.038790 -133.205842 18.515887 -88.433309 -14.753755 10.400803 5.704759 -18.633096 -12.113506 -1.923414 -34.142256 34.349350 60.104206 3.011760 15.312067 -0.224031 0.653530 0.683200 0.327280 18.984884 -11.992626 1.265421 -6.745580 -0.244750 -12.932623 -28.961298 5.457542 74.033721 -2.502760 -11.496742 0.553153 0.344200 -0.120120 0.105020 -5.285925 3.171462 -8.686358 27.800910 8.265451 20.137416 4.384621 10.956957 16.002165 1.173826 -0.089951 -13.226254 1.084652 -3.015112 43.596064 26.973680 -4.625630 -29.542830 -14.554477 -11.126752 8.705116 -49.008456 -2.695940 -0.091947 161.700329 -39.514178 -147.037149 -3.086049 3.475440 0.597690 -0.388380 0.452170 0.201500 12.354278 17.996816 8.189014 20.480402 18.657731 -7.126449 -141.609630 65.619733 -140.149244 2.332834 -1.653236 0.062870 0.257620 -0.230580 0.021590 
6.003220 9.631580 -7.009260 -136.176553 19.580207 -89.179486 -14.737814 10.202108 5.758318 -18.166743 -13.498943 -2.343231 -31.353196 35.334220 65.685195 3.192409 16.101445 -0.387688 0.608350 0.625720 0.298560 19.027748 -12.076518 1.180994 -7.120897 -1.058079 -14.154406 -31.026165 6.537500 74.902389 -2.568048 -11.875880 0.464974 0.319250 -0.081270 0.095140 -5.362019 3.563982 -8.719770 25.562058 10.060523 19.043169 4.577401 12.588399 14.926789 -0.198298 1.513835 -12.591166 3.575220 -5.003741 43.028452 27.815220 -5.753110 -27.599100 -13.690403 -10.146952 6.858047 -45.218004 -6.552157 0.511354 162.161345 -46.117126 -152.308789 -3.097612 3.510199 0.567060 -0.353630 0.407860 0.195340 13.967052 15.515455 9.178103 27.665966 15.621316 -6.983399 -145.676970 62.135698 -144.501349 2.323731 -1.661280 0.043850 0.257240 -0.211850 0.022640 
6.124420 9.621270 -7.005450 -137.076468 18.968511 -89.105931 -14.850180 10.326101 5.632061 -15.235166 -13.537367 -2.316269 -27.870305 35.919572 70.673906 3.261801 16.705104 -0.552682 0.594870 0.595730 0.329650 18.921318 -11.763535 1.534338 -4.096933 -0.680894 -15.433629 -43.123208 15.866785 72.975925 -3.080411 -13.476357 0.106648 0.307900 -0.104940 0.091570 -5.031673 3.026447 -8.781393 22.339309 10.374825 19.599030 7.108219 13.002986 12.475342 -1.032153 1.578881 -11.800394 3.814007 -4.114226 42.938873 25.915500 -4.271960 -27.486450 -13.407052 -7.261414 6.213242 -47.266167 -3.422679 -0.533944 167.065211 -46.369394 -162.968537 -3.072146 3.556166 0.601530 -0.354780 0.415420 0.165810 15.233091 13.166187 8.098178 32.586342 15.516955 -7.195484 -152.007021 63.897436 -154.673081 2.256857 -1.702073 0.019840 0.258430 -0.198440 -0.016540 
6.196120 9.608860 -7.017830 -136.727294 18.662400 -87.539484 -14.972021 10.018412 5.597628 -13.128972 -14.005880 -3.430417 -34.988305 40.297393 67.574979 3.364984 16.967377 -0.594126 0.539740 0.496910 0.319750 18.868025 -11.166272 2.068156 -1.636086 0.499504 -18.979170 -58.103641 23.457907 65.597400 -3.424541 -14.639176 -0.125037 0.256310 -0.102030 0.091540 -4.781268 2.798776 -9.043288 19.326249 11.389421 19.686033 8.444563 14.274459 9.356079 -1.703698 2.686977 -11.366298 6.029081 -3.669560 41.268626 24.703940 -3.491390 -24.600220 -12.880539 -4.867098 5.696865 -48.982487 0.380578 -2.914611 173.200261 -47.791873 -177.556968 -3.062878 3.653086 0.592670 -0.327100 0.375860 0.147800 15.830169 10.375073 7.512441 39.570430 13.395236 -7.623227 -161.022874 65.544607 -168.612657 2.190125 -1.728517 -0.003250 0.219760 -0.176660 -0.050650 
